<?xml version="1.0" encoding="UTF-8"?>

<svg version="1.2" baseProfile="tiny" width="39.08mm" height="14.1mm" viewBox="0 0 3908 1410" preserveAspectRatio="xMidYMid" fill-rule="evenodd" stroke-width="28.222" stroke-linejoin="round" xmlns="http://www.w3.org/2000/svg" xmlns:ooo="http://xml.openoffice.org/svg/export" xmlns:xlink="http://www.w3.org/1999/xlink" xmlns:presentation="http://sun.com/xmlns/staroffice/presentation" xmlns:smil="http://www.w3.org/2001/SMIL20/" xmlns:anim="urn:oasis:names:tc:opendocument:xmlns:animation:1.0" xml:space="preserve">
 <defs class="ClipPathGroup">
  <clipPath id="presentation_clip_path" clipPathUnits="userSpaceOnUse">
   <rect x="0" y="0" width="3908" height="1410"/>
  </clipPath>
 </defs>
 <defs class="TextShapeIndex">
  <g ooo:slide="id1" ooo:id-list="id3 id4 id5 id6"/>
 </defs>
 <defs class="EmbeddedBulletChars">
  <g id="bullet-char-template(57356)" transform="scale(0.00048828125,-0.00048828125)">
   <path d="M 580,1141 L 1163,571 580,0 -4,571 580,1141 Z"/>
  </g>
  <g id="bullet-char-template(57354)" transform="scale(0.00048828125,-0.00048828125)">
   <path d="M 8,1128 L 1137,1128 1137,0 8,0 8,1128 Z"/>
  </g>
  <g id="bullet-char-template(10146)" transform="scale(0.00048828125,-0.00048828125)">
   <path d="M 174,0 L 602,739 174,1481 1456,739 174,0 Z M 1358,739 L 309,1346 659,739 1358,739 Z"/>
  </g>
  <g id="bullet-char-template(10132)" transform="scale(0.00048828125,-0.00048828125)">
   <path d="M 2015,739 L 1276,0 717,0 1260,543 174,543 174,936 1260,936 717,1481 1274,1481 2015,739 Z"/>
  </g>
  <g id="bullet-char-template(10007)" transform="scale(0.00048828125,-0.00048828125)">
   <path d="M 0,-2 C -7,14 -16,27 -25,37 L 356,567 C 262,823 215,952 215,954 215,979 228,992 255,992 264,992 276,990 289,987 310,991 331,999 354,1012 L 381,999 492,748 772,1049 836,1024 860,1049 C 881,1039 901,1025 922,1006 886,937 835,863 770,784 769,783 710,716 594,584 L 774,223 C 774,196 753,168 711,139 L 727,119 C 717,90 699,76 672,76 641,76 570,178 457,381 L 164,-76 C 142,-110 111,-127 72,-127 30,-127 9,-110 8,-76 1,-67 -2,-52 -2,-32 -2,-23 -1,-13 0,-2 Z"/>
  </g>
  <g id="bullet-char-template(10004)" transform="scale(0.00048828125,-0.00048828125)">
   <path d="M 285,-33 C 182,-33 111,30 74,156 52,228 41,333 41,471 41,549 55,616 82,672 116,743 169,778 240,778 293,778 328,747 346,684 L 369,508 C 377,444 397,411 428,410 L 1163,1116 C 1174,1127 1196,1133 1229,1133 1271,1133 1292,1118 1292,1087 L 1292,965 C 1292,929 1282,901 1262,881 L 442,47 C 390,-6 338,-33 285,-33 Z"/>
  </g>
  <g id="bullet-char-template(9679)" transform="scale(0.00048828125,-0.00048828125)">
   <path d="M 813,0 C 632,0 489,54 383,161 276,268 223,411 223,592 223,773 276,916 383,1023 489,1130 632,1184 813,1184 992,1184 1136,1130 1245,1023 1353,916 1407,772 1407,592 1407,412 1353,268 1245,161 1136,54 992,0 813,0 Z"/>
  </g>
  <g id="bullet-char-template(8226)" transform="scale(0.00048828125,-0.00048828125)">
   <path d="M 346,457 C 273,457 209,483 155,535 101,586 74,649 74,723 74,796 101,859 155,911 209,963 273,989 346,989 419,989 480,963 531,910 582,859 608,796 608,723 608,648 583,586 532,535 482,483 420,457 346,457 Z"/>
  </g>
  <g id="bullet-char-template(8211)" transform="scale(0.00048828125,-0.00048828125)">
   <path d="M -4,459 L 1135,459 1135,606 -4,606 -4,459 Z"/>
  </g>
 </defs>
 <defs class="TextEmbeddedBitmaps"/>
 <g>
  <g id="id2" class="Master_Slide">
   <g id="bg-id2" class="Background"/>
   <g id="bo-id2" class="BackgroundObjects"/>
  </g>
 </g>
 <g class="SlideGroup">
  <g>
   <g id="id1" class="Slide" clip-path="url(#presentation_clip_path)">
    <g class="Page">
     <g class="com.sun.star.drawing.PolyPolygonShape">
      <g id="id3">
       <rect class="BoundingBox" stroke="none" fill="none" x="0" y="0" width="3910" height="1412"/>
      </g>
     </g>
     <g class="com.sun.star.drawing.ClosedBezierShape">
      <g id="id4">
       <rect class="BoundingBox" stroke="none" fill="none" x="0" y="0" width="3910" height="425"/>
       <path fill="rgb(255,102,0)" stroke="none" d="M 3851,244 C 3850,220 3844,203 3833,191 3822,179 3807,174 3790,174 3773,174 3758,179 3747,191 3736,203 3730,220 3729,244 L 3851,244 Z M 3729,293 C 3729,317 3736,336 3749,348 3762,361 3778,367 3798,367 3822,367 3843,358 3861,338 L 3903,376 C 3874,408 3839,424 3799,424 3784,424 3769,421 3755,417 3747,414 3740,411 3733,407 3726,403 3720,399 3713,393 3701,382 3691,366 3683,346 3675,327 3671,302 3671,272 3671,242 3675,217 3682,198 3689,178 3698,162 3710,150 3721,139 3734,130 3748,125 3762,120 3776,117 3790,117 3823,118 3851,129 3874,151 3897,174 3909,205 3909,244 L 3909,293 3729,293 Z M 3533,0 L 3591,0 3591,343 C 3591,357 3599,364 3613,364 L 3633,364 3633,420 3607,420 C 3586,420 3569,415 3555,404 3541,393 3533,374 3533,348 L 3533,0 Z M 3217,121 L 3275,121 3275,299 C 3275,320 3281,335 3292,347 3302,358 3316,364 3333,364 3350,364 3363,358 3374,347 3385,335 3390,320 3390,299 L 3390,121 3448,121 3448,420 3390,420 3390,388 3389,388 C 3370,412 3345,424 3314,424 3290,423 3268,414 3249,397 3228,379 3217,354 3217,320 L 3217,121 Z M 2901,0 L 2959,0 2959,153 2960,153 C 2979,129 3004,117 3035,117 3059,117 3081,126 3101,143 3121,161 3131,187 3132,221 L 3132,420 3074,420 3074,242 C 3074,221 3068,205 3058,194 3047,183 3033,177 3017,177 3000,177 2986,183 2975,194 2964,205 2959,221 2959,242 L 2959,420 2901,420 2901,0 Z M 2853,372 C 2840,387 2825,399 2808,408 2791,418 2771,423 2749,424 2714,424 2685,412 2659,388 2632,364 2618,325 2617,271 2618,216 2632,177 2659,153 2684,129 2714,117 2749,117 2771,118 2791,122 2808,132 2825,141 2840,154 2853,169 L 2810,209 C 2795,188 2775,178 2751,177 2702,176 2676,207 2676,271 2676,334 2701,365 2751,364 2775,363 2795,353 2810,332 L 2853,372 Z M 2365,329 C 2389,354 2420,367 2457,367 2474,367 2487,364 2498,357 2509,351 2514,341 2514,329 2514,318 2511,311 2504,306 2498,302 2489,300 2478,299 L 2427,295 C 2403,292 2383,284 2368,269 2352,255 2344,235 2344,209 2344,179 2355,156 2375,140 2395,125 2421,117 2452,117 2465,117 2477,118 2488,120 2498,122 2508,124 2517,128 2535,135 2551,145 2565,158 L 2529,201 C 2518,193 2506,186 2494,181 2482,176 2467,173 2452,173 2433,173 2421,177 2413,184 2406,190 2402,199 2402,210 2401,216 2404,222 2411,227 2416,233 2426,236 2440,238 L 2488,242 C 2518,244 2540,253 2553,270 2566,286 2572,307 2572,331 2571,361 2560,383 2538,399 2515,415 2487,423 2452,424 2405,424 2362,406 2325,370 L 2365,329 Z M 2040,0 L 2099,0 2099,153 2100,153 C 2119,129 2144,117 2175,117 2199,117 2221,126 2241,143 2261,161 2271,187 2272,221 L 2272,420 2214,420 2214,242 C 2214,221 2208,205 2197,194 2187,183 2173,177 2156,177 2140,177 2126,183 2115,194 2104,205 2099,221 2099,242 L 2099,420 2040,420 2040,0 Z M 1992,372 C 1980,387 1965,399 1948,408 1931,418 1911,423 1888,424 1854,424 1824,412 1798,388 1772,364 1758,325 1757,271 1758,216 1772,177 1798,153 1824,129 1854,117 1888,117 1911,118 1931,122 1948,132 1965,141 1980,154 1992,169 L 1949,209 C 1935,188 1915,178 1891,177 1841,176 1816,207 1815,271 1816,334 1841,365 1891,364 1915,363 1935,353 1949,332 L 1992,372 Z M 1651,271 C 1651,249 1650,234 1648,224 1646,214 1642,206 1636,199 1632,192 1626,187 1617,183 1610,179 1600,177 1590,177 1580,177 1571,179 1562,183 1554,187 1548,192 1543,199 1538,206 1534,215 1532,224 1530,234 1529,249 1529,270 1529,291 1530,306 1532,316 1534,326 1538,335 1543,342 1548,348 1554,353 1562,357 1571,362 1580,364 1590,364 1600,364 1610,362 1617,357 1626,353 1632,348 1636,342 1642,335 1646,326 1648,316 1650,306 1651,291 1651,271 Z M 1471,270 C 1471,239 1473,214 1478,197 1483,181 1491,167 1502,156 1510,146 1521,137 1536,129 1550,122 1568,118 1590,117 1613,118 1631,122 1645,129 1659,137 1670,146 1677,156 1689,167 1697,181 1702,198 1706,215 1709,239 1709,270 1709,302 1706,326 1702,342 1697,359 1689,373 1677,385 1674,390 1669,394 1664,398 1659,403 1653,407 1645,411 1631,419 1613,423 1590,424 1568,423 1550,419 1536,411 1521,403 1510,395 1502,385 1491,373 1483,359 1478,342 1473,326 1471,302 1471,270 Z M 1168,0 L 1227,0 1227,153 1228,153 C 1247,129 1272,117 1303,117 1327,117 1349,126 1369,143 1388,161 1399,187 1400,221 L 1400,420 1342,420 1342,242 C 1342,221 1336,205 1325,194 1315,183 1301,177 1284,177 1268,177 1254,183 1243,194 1232,205 1227,221 1227,242 L 1227,420 1168,420 1168,0 Z M 852,0 L 910,0 910,153 911,153 C 931,129 956,117 987,117 1011,117 1033,126 1052,143 1072,161 1082,187 1083,221 L 1083,420 1025,420 1025,242 C 1025,221 1020,205 1009,194 999,183 985,177 968,177 951,177 938,183 927,194 916,205 910,221 910,242 L 910,420 852,420 852,0 Z M 804,372 C 791,387 777,399 759,408 742,418 723,423 700,424 666,424 636,412 610,388 583,364 570,325 569,271 570,216 583,177 610,153 636,129 666,117 700,117 723,118 742,122 759,132 777,141 791,154 804,169 L 761,209 C 746,188 727,178 702,177 653,176 628,207 627,271 628,334 653,365 702,364 727,363 746,353 761,332 L 804,372 Z M 448,293 L 379,293 C 345,294 328,306 329,329 329,340 333,348 342,355 350,363 364,367 383,367 407,368 425,365 435,358 444,352 448,338 448,315 L 448,293 Z M 448,394 L 447,394 C 442,404 433,411 422,416 411,421 396,424 376,424 344,423 319,414 302,397 283,380 274,359 274,332 274,307 282,286 298,270 314,253 337,244 368,244 L 448,244 448,212 C 449,186 429,173 389,174 375,174 363,175 355,178 346,182 339,188 334,197 L 289,161 C 311,131 343,116 386,117 423,117 452,124 473,139 495,154 506,179 506,216 L 506,420 448,420 448,394 Z M 0,0 L 259,0 259,60 61,60 61,184 230,184 230,240 61,240 61,420 0,420 0,0 Z"/>
      </g>
     </g>
     <g class="com.sun.star.drawing.ClosedBezierShape">
      <g id="id5">
       <rect class="BoundingBox" stroke="none" fill="none" x="3" y="563" width="2466" height="425"/>
       <path fill="rgb(255,102,0)" stroke="none" d="M 2353,740 C 2339,740 2329,743 2321,747 2313,753 2307,760 2304,769 2300,778 2298,788 2297,798 2296,810 2295,821 2295,833 2295,845 2296,856 2297,866 2298,878 2300,888 2304,897 2307,906 2313,913 2321,918 2329,924 2339,927 2353,927 2367,927 2378,924 2386,918 2394,912 2399,905 2402,896 2406,887 2408,877 2410,866 2410,855 2410,844 2410,833 2410,822 2410,810 2410,800 2408,789 2406,779 2402,770 2399,761 2394,754 2386,748 2378,743 2367,740 2353,740 Z M 2410,952 C 2391,974 2366,986 2335,987 2318,986 2303,983 2290,975 2277,968 2266,959 2258,948 2250,938 2244,925 2242,909 2239,894 2237,869 2237,833 2237,797 2239,772 2242,756 2244,741 2250,729 2258,719 2274,694 2300,681 2335,680 2350,680 2364,683 2376,690 2388,696 2399,705 2410,715 L 2410,563 2468,563 2468,983 2410,983 2410,952 Z M 1921,684 L 1979,684 1979,716 1980,716 C 1999,692 2024,680 2055,680 2079,680 2101,689 2121,706 2141,724 2151,750 2152,784 L 2152,983 2094,983 2094,805 C 2094,784 2089,768 2078,757 2067,746 2053,740 2037,740 2020,740 2006,746 1995,757 1984,768 1979,784 1979,805 L 1979,983 1921,983 1921,684 Z M 1604,684 L 1663,684 1663,862 C 1663,883 1668,898 1679,910 1690,921 1704,927 1720,927 1737,927 1751,921 1761,910 1772,898 1778,883 1778,862 L 1778,684 1836,684 1836,983 1778,983 1778,951 1776,951 C 1757,975 1732,987 1701,987 1677,986 1656,977 1636,960 1615,942 1605,917 1604,883 L 1604,684 Z M 1100,684 L 1159,684 1159,716 1160,716 C 1180,692 1206,680 1238,680 1258,681 1275,684 1288,691 1300,698 1312,708 1322,719 1345,693 1377,680 1416,680 1441,680 1463,689 1484,706 1504,724 1515,750 1516,784 L 1516,983 1457,983 1457,805 C 1457,784 1452,768 1441,757 1430,746 1415,740 1398,740 1380,740 1366,746 1354,757 1343,768 1337,784 1337,805 L 1337,983 1279,983 1279,805 C 1279,784 1273,768 1262,757 1251,746 1237,740 1219,740 1202,740 1187,746 1176,757 1165,768 1159,784 1159,805 L 1159,983 1100,983 1100,684 Z M 925,593 L 983,593 983,684 1025,684 1025,730 983,730 983,905 C 983,920 990,927 1004,927 L 1025,927 1025,983 995,983 C 975,983 958,976 945,963 932,951 925,933 925,909 L 925,730 896,730 896,684 925,684 925,593 Z M 663,684 L 721,684 721,716 722,716 C 741,692 766,680 797,680 820,681 841,688 858,703 L 816,755 C 803,745 791,740 777,740 763,740 750,745 739,755 727,765 721,781 721,803 L 721,983 663,983 663,684 Z M 534,834 C 534,812 533,797 531,787 529,778 526,769 520,762 516,755 509,750 501,746 493,742 484,740 473,740 463,740 454,742 446,746 438,750 432,755 427,762 422,769 418,778 416,787 413,797 412,812 412,833 412,854 413,869 416,879 418,889 422,898 427,905 432,911 438,916 446,920 454,925 463,927 473,927 484,927 493,925 501,920 509,916 516,911 520,905 526,898 530,889 531,879 533,869 534,854 534,834 Z M 354,833 C 354,802 357,778 362,760 367,744 375,730 386,719 394,709 405,700 419,692 433,685 451,681 473,680 496,681 514,685 528,692 542,700 553,709 561,719 572,730 580,744 585,761 590,778 592,802 592,833 592,865 590,889 585,905 580,922 572,936 561,948 557,953 553,957 547,961 542,966 536,970 528,974 514,982 496,986 473,987 451,986 433,982 419,974 405,966 394,958 386,948 375,936 367,922 362,905 357,889 354,865 354,833 Z M 64,923 L 138,923 C 172,923 197,911 213,886 220,877 224,866 226,852 228,838 229,813 229,775 229,739 228,713 226,697 224,681 219,668 210,658 193,634 169,622 138,623 L 64,623 64,923 Z M 3,563 L 145,563 C 200,563 241,587 268,634 278,650 284,666 287,683 289,701 290,731 290,773 290,818 288,850 285,867 284,876 282,884 279,892 275,899 272,906 267,913 255,933 239,949 218,962 197,976 171,983 141,983 L 3,983 3,563 Z"/>
      </g>
     </g>
     <g class="com.sun.star.drawing.ClosedBezierShape">
      <g id="id6">
       <rect class="BoundingBox" stroke="none" fill="none" x="3" y="1188" width="3907" height="224"/>
       <path fill="rgb(255,102,0)" stroke="none" d="M 3909,1326 C 3909,1309 3899,1298 3879,1293 L 3864,1290 C 3851,1287 3847,1282 3847,1273 3847,1261 3855,1253 3868,1253 3879,1253 3887,1257 3897,1262 L 3904,1248 C 3894,1242 3881,1238 3869,1238 3845,1238 3828,1253 3828,1275 3828,1291 3838,1303 3857,1307 L 3872,1310 C 3885,1313 3890,1319 3890,1330 3890,1342 3881,1350 3867,1350 3855,1350 3842,1346 3831,1339 L 3824,1353 C 3836,1360 3852,1365 3866,1365 3892,1365 3909,1349 3909,1326 Z M 3805,1243 L 3776,1243 C 3776,1227 3779,1209 3779,1209 L 3760,1213 C 3760,1213 3758,1232 3758,1243 L 3743,1243 3743,1257 3758,1257 3758,1338 C 3758,1350 3761,1358 3769,1362 3773,1364 3778,1365 3784,1365 3792,1365 3798,1363 3804,1360 L 3802,1348 C 3798,1350 3795,1351 3790,1351 3779,1351 3776,1346 3776,1333 L 3776,1257 3800,1257 3805,1243 Z M 3725,1241 C 3725,1241 3722,1239 3719,1239 3707,1239 3695,1247 3687,1259 3688,1249 3683,1240 3683,1240 L 3665,1245 C 3665,1245 3669,1253 3669,1270 L 3669,1361 3687,1361 3687,1287 C 3687,1278 3689,1274 3694,1269 3699,1263 3706,1260 3713,1260 3715,1260 3717,1260 3718,1261 L 3725,1241 Z M 3603,1295 L 3554,1295 3579,1216 3603,1295 Z M 3644,1361 L 3592,1198 3568,1198 3515,1361 3534,1361 3549,1311 3608,1311 3623,1361 3644,1361 Z M 3415,1331 C 3415,1331 3413,1336 3408,1340 3401,1345 3395,1347 3386,1347 3375,1347 3368,1343 3363,1333 3359,1327 3358,1316 3358,1303 3358,1286 3360,1277 3366,1268 3370,1260 3378,1256 3387,1256 3401,1256 3409,1260 3415,1268 L 3415,1331 Z M 3437,1361 C 3434,1354 3433,1343 3433,1323 L 3433,1191 3415,1188 3415,1238 C 3415,1246 3415,1256 3415,1256 3408,1246 3397,1241 3384,1241 3376,1241 3369,1243 3362,1248 3346,1259 3338,1278 3338,1303 3338,1341 3355,1363 3385,1363 3398,1363 3407,1359 3415,1349 3416,1355 3418,1361 3418,1361 L 3437,1361 Z M 3304,1361 L 3304,1272 C 3304,1267 3303,1262 3302,1258 3297,1247 3286,1241 3273,1241 3261,1241 3249,1246 3237,1259 3237,1249 3233,1240 3233,1240 L 3216,1245 C 3216,1245 3220,1253 3220,1270 L 3220,1361 3238,1361 3238,1273 C 3246,1264 3260,1257 3269,1257 3275,1257 3279,1258 3282,1262 3285,1266 3286,1269 3286,1281 L 3286,1361 3304,1361 Z M 3159,1301 L 3158,1332 C 3153,1343 3142,1351 3130,1351 3117,1351 3110,1343 3110,1329 3110,1311 3121,1301 3150,1301 3153,1301 3156,1301 3159,1301 Z M 3185,1352 C 3177,1348 3176,1343 3176,1324 L 3177,1285 C 3177,1274 3177,1265 3174,1259 3170,1246 3159,1240 3143,1240 3126,1240 3110,1245 3095,1256 L 3104,1269 C 3111,1262 3127,1255 3140,1255 3147,1255 3152,1257 3156,1262 3159,1265 3159,1270 3159,1280 L 3159,1288 C 3159,1288 3156,1288 3151,1288 3113,1288 3090,1304 3090,1331 3090,1346 3099,1364 3127,1364 3140,1364 3149,1360 3160,1348 3163,1357 3168,1363 3176,1366 L 3185,1352 Z M 3008,1326 C 3008,1309 2998,1298 2977,1293 L 2962,1290 C 2950,1287 2945,1282 2945,1273 2945,1261 2954,1253 2967,1253 2977,1253 2986,1257 2996,1262 L 3003,1248 C 2993,1242 2980,1238 2968,1238 2944,1238 2927,1253 2927,1275 2927,1291 2937,1303 2956,1307 L 2970,1310 C 2983,1313 2989,1319 2989,1330 2989,1342 2980,1350 2966,1350 2953,1350 2941,1346 2929,1339 L 2922,1353 C 2934,1360 2950,1365 2965,1365 2990,1365 3008,1349 3008,1326 Z M 2877,1291 L 2825,1291 C 2826,1267 2835,1255 2851,1255 2860,1255 2868,1258 2872,1265 2875,1271 2877,1278 2877,1291 Z M 2896,1305 L 2896,1303 C 2896,1274 2893,1263 2883,1253 2875,1245 2865,1240 2852,1240 2838,1240 2827,1245 2818,1256 2808,1268 2804,1281 2804,1301 2804,1340 2823,1364 2855,1364 2870,1364 2883,1359 2894,1349 L 2887,1337 C 2879,1345 2870,1348 2859,1348 2847,1348 2836,1344 2830,1334 2826,1328 2825,1319 2825,1308 L 2825,1305 2896,1305 Z M 2781,1348 L 2771,1336 C 2765,1345 2756,1349 2747,1349 2728,1349 2718,1335 2718,1308 2718,1291 2720,1278 2725,1269 2729,1261 2737,1256 2747,1256 2755,1256 2760,1259 2768,1266 L 2778,1253 C 2770,1246 2761,1240 2747,1240 2735,1240 2725,1245 2716,1254 2706,1264 2699,1278 2699,1304 2699,1322 2702,1335 2710,1346 2718,1358 2730,1364 2746,1364 2761,1364 2771,1359 2781,1348 Z M 2664,1361 L 2664,1272 C 2664,1267 2663,1262 2661,1258 2656,1247 2645,1241 2633,1241 2621,1241 2609,1246 2597,1259 2597,1249 2593,1240 2593,1240 L 2575,1245 C 2575,1245 2580,1253 2580,1270 L 2580,1361 2597,1361 2597,1273 C 2605,1264 2620,1257 2629,1257 2634,1257 2639,1258 2641,1262 2645,1266 2646,1269 2646,1281 L 2646,1361 2664,1361 Z M 2523,1291 L 2471,1291 C 2472,1267 2481,1255 2497,1255 2506,1255 2514,1258 2518,1265 2522,1271 2523,1278 2523,1291 Z M 2542,1305 L 2542,1303 C 2542,1274 2539,1263 2529,1253 2522,1245 2511,1240 2498,1240 2484,1240 2473,1245 2464,1256 2454,1268 2450,1281 2450,1301 2450,1340 2469,1364 2501,1364 2516,1364 2530,1359 2540,1349 L 2533,1337 C 2525,1345 2516,1348 2505,1348 2493,1348 2483,1344 2476,1334 2472,1328 2471,1319 2471,1308 L 2471,1305 2542,1305 Z M 2415,1361 L 2415,1241 2396,1244 2396,1361 2415,1361 Z M 2420,1207 C 2420,1198 2414,1192 2406,1192 2398,1192 2392,1199 2392,1207 2392,1215 2398,1221 2406,1221 2414,1221 2420,1215 2420,1207 Z M 2365,1348 L 2356,1336 C 2349,1345 2340,1349 2331,1349 2312,1349 2303,1335 2303,1308 2303,1291 2305,1278 2309,1269 2313,1261 2322,1256 2331,1256 2339,1256 2344,1259 2353,1266 L 2362,1253 C 2354,1246 2346,1240 2331,1240 2319,1240 2309,1245 2300,1254 2290,1264 2283,1278 2283,1304 2283,1322 2286,1335 2294,1346 2302,1358 2314,1364 2330,1364 2345,1364 2355,1359 2365,1348 Z M 2254,1315 C 2254,1305 2250,1294 2244,1286 2237,1279 2230,1275 2216,1270 L 2198,1264 C 2179,1258 2172,1251 2172,1238 2172,1221 2183,1211 2203,1211 2217,1211 2226,1214 2242,1225 L 2250,1211 C 2235,1200 2219,1195 2202,1195 2172,1195 2151,1214 2151,1242 2151,1252 2155,1261 2161,1268 2167,1275 2175,1278 2189,1283 L 2205,1288 C 2224,1294 2233,1304 2233,1318 2233,1328 2230,1335 2222,1341 2215,1346 2209,1348 2197,1348 2181,1348 2168,1344 2155,1334 L 2146,1349 C 2162,1359 2178,1364 2197,1364 2211,1364 2222,1361 2232,1354 2246,1345 2254,1330 2254,1315 Z M 2038,1331 C 2038,1331 2036,1336 2031,1340 2023,1345 2018,1347 2009,1347 1998,1347 1991,1343 1986,1333 1982,1327 1981,1316 1981,1303 1981,1286 1983,1277 1989,1268 1993,1260 2001,1256 2010,1256 2023,1256 2032,1260 2038,1268 L 2038,1331 Z M 2059,1361 C 2057,1354 2056,1343 2056,1323 L 2056,1191 2038,1188 2038,1238 C 2038,1246 2038,1256 2038,1256 2031,1246 2020,1241 2007,1241 1999,1241 1992,1243 1985,1248 1969,1259 1961,1278 1961,1303 1961,1341 1978,1363 2008,1363 2021,1363 2030,1359 2038,1349 2039,1355 2041,1361 2041,1361 L 2059,1361 Z M 1913,1291 L 1861,1291 C 1862,1267 1871,1255 1887,1255 1896,1255 1904,1258 1908,1265 1912,1271 1913,1278 1913,1291 Z M 1933,1305 L 1933,1303 C 1933,1274 1929,1263 1919,1253 1912,1245 1901,1240 1888,1240 1875,1240 1863,1245 1854,1256 1844,1268 1840,1281 1840,1301 1840,1340 1859,1364 1891,1364 1906,1364 1920,1359 1930,1349 L 1923,1337 C 1915,1345 1906,1348 1895,1348 1883,1348 1873,1344 1866,1334 1862,1328 1861,1319 1861,1308 L 1861,1305 1933,1305 Z M 1805,1361 L 1805,1241 1786,1244 1786,1361 1805,1361 Z M 1810,1207 C 1810,1198 1804,1192 1796,1192 1788,1192 1782,1199 1782,1207 1782,1215 1788,1221 1796,1221 1804,1221 1810,1215 1810,1207 Z M 1755,1361 L 1751,1349 C 1751,1349 1750,1349 1749,1349 1744,1349 1743,1347 1743,1338 L 1743,1217 C 1743,1199 1740,1189 1740,1189 L 1722,1192 C 1722,1192 1724,1201 1724,1217 L 1724,1342 C 1724,1350 1726,1355 1730,1359 1733,1362 1738,1364 1744,1364 1748,1364 1750,1363 1755,1361 Z M 1669,1304 C 1669,1318 1668,1327 1664,1334 1660,1343 1651,1349 1640,1349 1630,1349 1621,1343 1612,1333 L 1612,1274 C 1621,1263 1631,1257 1643,1257 1652,1257 1660,1262 1664,1270 1667,1277 1669,1290 1669,1304 Z M 1688,1302 C 1688,1281 1684,1266 1676,1255 1668,1246 1657,1241 1645,1241 1632,1241 1621,1247 1611,1258 1611,1245 1610,1240 1610,1240 L 1592,1243 C 1592,1243 1594,1251 1594,1269 L 1594,1411 1612,1407 1612,1351 C 1620,1359 1632,1364 1644,1364 1659,1364 1671,1356 1679,1343 1686,1332 1688,1321 1688,1302 Z M 1539,1304 C 1539,1318 1537,1327 1534,1334 1530,1343 1520,1349 1510,1349 1500,1349 1490,1343 1482,1333 L 1482,1274 C 1490,1263 1501,1257 1512,1257 1522,1257 1530,1262 1534,1270 1537,1277 1539,1290 1539,1304 Z M 1558,1302 C 1558,1281 1554,1266 1545,1255 1538,1246 1526,1241 1515,1241 1502,1241 1490,1247 1481,1258 1481,1245 1480,1240 1480,1240 L 1461,1243 C 1461,1243 1464,1251 1464,1269 L 1464,1411 1482,1407 1482,1351 C 1490,1359 1502,1364 1513,1364 1528,1364 1541,1356 1549,1343 1555,1332 1558,1321 1558,1302 Z M 1398,1295 L 1349,1295 1374,1216 1398,1295 Z M 1439,1361 L 1387,1198 1362,1198 1309,1361 1328,1361 1344,1311 1403,1311 1418,1361 1439,1361 Z M 1259,1196 C 1252,1192 1243,1189 1233,1189 1225,1189 1219,1191 1213,1196 1208,1199 1200,1207 1200,1225 L 1200,1243 1189,1243 1189,1257 1200,1257 1200,1361 1219,1361 1219,1257 1246,1257 1251,1243 1219,1243 1219,1225 C 1219,1211 1225,1204 1235,1204 1241,1204 1248,1207 1252,1209 L 1259,1196 Z M 1141,1305 C 1141,1317 1140,1324 1138,1331 1134,1342 1125,1349 1113,1349 1103,1349 1094,1344 1089,1337 1085,1330 1082,1315 1082,1298 1082,1284 1084,1275 1088,1267 1092,1260 1101,1255 1111,1255 1121,1255 1131,1260 1136,1270 1139,1278 1141,1289 1141,1305 Z M 1162,1304 C 1162,1285 1158,1271 1151,1260 1143,1249 1131,1239 1112,1239 1081,1239 1063,1263 1063,1301 1063,1340 1081,1364 1112,1364 1141,1364 1162,1343 1162,1304 Z M 987,1243 L 966,1243 943,1321 C 941,1330 936,1345 936,1345 L 936,1345 C 936,1345 932,1327 929,1316 L 905,1239 888,1246 912,1320 C 916,1332 923,1355 924,1362 L 931,1361 C 925,1385 919,1393 905,1397 L 910,1410 C 930,1405 939,1389 947,1365 L 987,1243 Z M 872,1243 L 844,1243 C 844,1227 846,1209 846,1209 L 827,1213 C 827,1213 825,1232 825,1243 L 810,1243 810,1257 825,1257 825,1338 C 825,1350 828,1358 836,1362 841,1364 845,1365 851,1365 859,1365 866,1363 871,1360 L 869,1348 C 866,1350 863,1351 858,1351 846,1351 843,1346 843,1333 L 843,1257 867,1257 872,1243 Z M 780,1361 L 780,1241 761,1244 761,1361 780,1361 Z M 785,1207 C 785,1198 779,1192 771,1192 763,1192 757,1199 757,1207 757,1215 763,1221 771,1221 779,1221 785,1215 785,1207 Z M 727,1326 C 727,1309 717,1298 696,1293 L 681,1290 C 669,1287 665,1282 665,1273 665,1261 673,1253 686,1253 696,1253 705,1257 715,1262 L 722,1248 C 712,1242 699,1238 687,1238 663,1238 646,1253 646,1275 646,1291 656,1303 675,1307 L 689,1310 C 702,1313 708,1319 708,1330 708,1342 699,1350 685,1350 672,1350 660,1346 649,1339 L 642,1353 C 653,1360 669,1365 684,1365 710,1365 727,1349 727,1326 Z M 627,1241 C 627,1241 624,1239 621,1239 609,1239 597,1247 589,1259 589,1249 585,1240 585,1240 L 567,1245 C 567,1245 571,1253 571,1270 L 571,1361 589,1361 589,1287 C 589,1277 590,1274 596,1268 601,1263 608,1260 615,1260 617,1260 619,1260 620,1261 L 627,1241 Z M 515,1291 L 462,1291 C 463,1267 472,1255 489,1255 498,1255 506,1258 510,1265 513,1271 515,1278 515,1291 Z M 534,1305 L 534,1303 C 534,1274 531,1263 521,1253 513,1245 502,1240 490,1240 476,1240 465,1245 455,1256 446,1268 442,1281 442,1301 442,1340 461,1364 492,1364 507,1364 521,1359 531,1349 L 524,1337 C 516,1345 507,1348 496,1348 485,1348 474,1344 468,1334 464,1328 462,1319 462,1308 L 462,1305 534,1305 Z M 424,1243 L 405,1243 379,1322 C 375,1332 373,1342 373,1342 L 373,1342 C 373,1342 371,1331 367,1321 L 341,1240 322,1244 364,1362 381,1362 424,1243 Z M 297,1361 L 297,1241 278,1244 278,1361 297,1361 Z M 302,1207 C 302,1198 296,1192 288,1192 280,1192 274,1199 274,1207 274,1215 280,1221 288,1221 296,1221 302,1215 302,1207 Z M 236,1361 L 236,1272 C 236,1267 235,1262 233,1258 229,1247 218,1241 205,1241 193,1241 181,1246 169,1259 169,1249 165,1240 165,1240 L 148,1245 C 148,1245 152,1253 152,1270 L 152,1361 169,1361 169,1273 C 178,1264 192,1257 201,1257 206,1257 211,1258 214,1262 217,1266 218,1269 218,1281 L 218,1361 236,1361 Z M 108,1314 L 108,1198 89,1198 89,1312 C 89,1323 88,1330 83,1337 78,1344 68,1347 55,1347 36,1347 27,1339 24,1332 22,1327 22,1316 22,1308 L 22,1198 3,1198 3,1315 C 3,1322 3,1333 8,1341 16,1357 30,1364 54,1364 73,1364 86,1360 96,1352 105,1343 108,1334 108,1314 Z"/>
      </g>
     </g>
    </g>
   </g>
  </g>
 </g>
</svg>